<?xml version="1.0" standalone="no"?>
<!DOCTYPE svg PUBLIC "-//W3C//DTD SVG 20010904//EN"
 "http://www.w3.org/TR/2001/REC-SVG-20010904/DTD/svg10.dtd">
<svg version="1.0" xmlns="http://www.w3.org/2000/svg"
 width="309.000000pt" height="310.000000pt" viewBox="0 0 309.000000 310.000000"
 preserveAspectRatio="xMidYMid meet">

<g transform="translate(0.000000,310.000000) scale(0.100000,-0.100000)"
fill="#1b74e4" stroke="none">
<path d="M1415 3043 c-524 -48 -980 -360 -1214 -830 -53 -107 -99 -241 -128
-373 -26 -121 -26 -459 0 -580 130 -601 575 -1053 1160 -1176 38 -8 70 -14 73
-14 2 0 4 234 4 520 l0 520 -200 0 -200 0 0 220 0 220 199 0 199 0 4 243 c5
263 10 293 70 411 36 72 124 161 195 199 80 43 191 67 307 67 93 0 229 -12
299 -26 l27 -6 0 -182 0 -183 -135 -5 c-166 -7 -212 -25 -260 -103 l-30 -48
-3 -184 -3 -183 205 0 c190 0 206 -1 206 -17 0 -10 -14 -103 -30 -208 -16
-104 -30 -196 -30 -202 0 -10 -42 -13 -175 -13 l-175 0 0 -520 c0 -299 4 -520
9 -520 5 0 61 13 124 29 499 126 898 502 1055 991 54 169 67 256 67 460 0 204
-13 291 -67 460 -156 488 -557 865 -1051 990 -162 41 -350 57 -502 43z"/>
</g>
</svg>
